<svg xmlns="http://www.w3.org/2000/svg" data-name="Layer 1" viewBox="0 0 32 32"><path d="M29.24 18.76A6 6 0 0 0 27 17.35V7a3 3 0 0 0-3-3H4a3 3 0 0 0-3 3v14a3 3 0 0 0 .27 1.23A3 3 0 0 0 4 24h15.09a6 6 0 1 0 10.15-5.24ZM21.56 25A4 4 0 0 1 27 19.56Zm-3.08-3L16 18.89l3-2.57 2.3 2a6.08 6.08 0 0 0-.54.47A6 6 0 0 0 19.09 22ZM4 6h20a1 1 0 0 1 1 1v10a6 6 0 0 0-1.81.28l-3.54-3a1 1 0 0 0-1.3 0l-3.61 3.09-4-5A1 1 0 0 0 10 12a1 1 0 0 0-.77.34L3 19.39V7a1 1 0 0 1 1-1Zm-.5 15.84 6.5-7.29L16 22H4a1 1 0 0 1-.5-.16Zm24.33 4a4.1 4.1 0 0 1-4.84.6L28.44 21a4 4 0 0 1-.61 4.85Z"/><circle cx="16" cy="10" r="2"/></svg>